<?xml version="1.0" encoding="UTF-8" standalone="no"?>
<!-- Created with Inkscape (http://www.inkscape.org/) -->

<svg
   sodipodi:docname="RollBone-Logo.svg"
   id="svg2715"
   version="1.1"
   viewBox="0 0 211.66666 211.66667"
   height="800"
   width="800"
   inkscape:version="1.2.1 (9c6d41e410, 2022-07-14)"
   xmlns:inkscape="http://www.inkscape.org/namespaces/inkscape"
   xmlns:sodipodi="http://sodipodi.sourceforge.net/DTD/sodipodi-0.dtd"
   xmlns="http://www.w3.org/2000/svg"
   xmlns:svg="http://www.w3.org/2000/svg">
  <sodipodi:namedview
     id="namedview2717"
     pagecolor="#ffffff"
     bordercolor="#000000"
     borderopacity="0.25"
     inkscape:showpageshadow="2"
     inkscape:pageopacity="0.0"
     inkscape:pagecheckerboard="0"
     inkscape:deskcolor="#d1d1d1"
     inkscape:document-units="mm"
     showgrid="true"
     inkscape:zoom="1.1893044"
     inkscape:cx="282.09767"
     inkscape:cy="485.99837"
     inkscape:window-width="2560"
     inkscape:window-height="1494"
     inkscape:window-x="2869"
     inkscape:window-y="163"
     inkscape:window-maximized="1"
     inkscape:current-layer="layer1">
    <inkscape:grid
       type="xygrid"
       id="grid2719" />
  </sodipodi:namedview>
  <defs
     id="defs2712">
    <inkscape:path-effect
       effect="mirror_symmetry"
       start_point="142.40795,185.40042"
       end_point="135.37238,191.54578"
       center_point="138.89016,188.4731"
       id="path-effect10694"
       is_visible="true"
       lpeversion="1.2"
       lpesatellites=""
       mode="free"
       discard_orig_path="false"
       fuse_paths="true"
       oposite_fuse="false"
       split_items="false"
       split_open="false"
       link_styles="false" />
  </defs>
  <g
     inkscape:label="Layer 1"
     inkscape:groupmode="layer"
     id="layer1">
    <path
       id="path6143"
       style="fill:#000000;fill-opacity:1;stroke:#000000;stroke-width:1.03288;stroke-linejoin:round;stroke-opacity:1"
       inkscape:label="Face:0"
       d="m 87.65063,86.623872 -46.071529,16.429028 -1.375162,35.45663 24.448567,32.95321 46.072344,-16.42902 1.37516,-35.45664 z" />
    <path
       id="path8030"
       style="fill:#000000;fill-opacity:1;stroke:#000000;stroke-width:0.816203;stroke-linejoin:round;stroke-opacity:1"
       inkscape:label="Face:2"
       d="m 159.3816,40.095595 -31.21591,6.521491 -24.0196,10.9733 12.18948,38.324868 31.21592,-6.521492 24.01959,-10.973302 z" />
    <path
       style="color:#000000;fill:#ffffff;stroke-width:1.42965;-inkscape-stroke:none;fill-opacity:1"
       d="m 75.111558,147.59846 c 4.169377,-5.41737 3.422728,-1.97966 3.422728,-1.97966 0,0 -0.350909,-5.89334 3.084434,-7.00208 3.43535,-1.10881 4.507673,-0.395 2.438757,3.40236 l 7.326061,1.72394 -4.606786,7.29577 -8.248941,-1.28734 c -4.988943,7.55976 -5.311052,0.40968 -3.416233,-2.15308 z m 25.519492,4.48006 c 3.12076,-5.60142 -0.36354,-2.64426 -0.36354,-2.64426 0,0 7.2646,-4.55649 5.85868,-6.51509 -1.40584,-1.95871 -3.10135,-1.73067 -5.96475,1.92707 l -7.845086,-0.93946 -5.001314,7.2265 8.058249,1.5755 c -5.011645,7.55576 3.720045,1.99508 5.257771,-0.63034 z"
       id="path14587" />
    <path
       style="color:#000000;fill:#ffffff;stroke-width:1.55031"
       d="m 83.699741,137.43931 c -0.662232,0.0355 -1.41527,0.21884 -2.306585,0.50652 -2.08577,0.67318 -2.948523,2.72511 -3.313033,4.44468 -0.172733,0.81485 -0.100462,0.95755 -0.125425,1.54952 -0.0637,0.0154 -0.142082,-0.0283 -0.198841,-0.006 -0.280333,0.11058 -0.528903,0.2862 -0.822907,0.53647 -0.588018,0.50055 -1.340155,1.32843 -2.398361,2.70339 l 1.284836,0.56345 -1.294012,-0.55447 c -0.05808,0.0786 -0.05663,0.19873 -0.110127,0.28173 -0.474462,0.73616 -0.826531,1.60048 -0.98198,2.49658 -0.172972,0.99716 -0.190156,1.96876 0.131537,2.76931 0.160848,0.40031 0.443045,0.79636 0.90856,0.98906 0.465514,0.19272 1.005529,0.11121 1.477559,-0.12584 0.842116,-0.42302 1.760451,-1.52506 2.841928,-3.084 l 8.100569,1.26177 7.372516,1.4416 c -0.30578,0.51571 -0.669581,1.08369 -0.835151,1.4776 -0.265245,0.63104 -0.410911,1.12402 -0.263088,1.66037 0.07391,0.26818 0.267301,0.53862 0.517002,0.68934 0.249687,0.15064 0.513688,0.19127 0.752542,0.18881 0.477717,-0.004 0.921629,-0.15676 1.407199,-0.37164 0.971159,-0.42977 2.075585,-1.15894 3.071375,-1.96309 0.99578,-0.80415 1.863726,-1.65006 2.340226,-2.46362 l -1.333786,-0.49153 1.342966,0.47953 c 0.79446,-1.42597 1.18557,-2.30683 1.33071,-2.96712 0.0586,-0.26632 0.0307,-0.52666 -0.052,-0.80022 0.6535,-0.45788 0.86263,-0.53894 1.65193,-1.20485 0.84582,-0.71358 1.65568,-1.48738 2.20563,-2.28677 0.27498,-0.39971 0.49186,-0.80878 0.5843,-1.25878 0.0924,-0.45004 0.0287,-0.97278 -0.26921,-1.38768 -0.39452,-0.5497 -0.83715,-0.99711 -1.38883,-1.26776 -0.55169,-0.27064 -1.20843,-0.32626 -1.83549,-0.14987 -1.16508,0.32777 -2.28751,1.36315 -3.615876,3.0031 l -7.910918,-0.94708 -6.922809,-1.62742 c 0.271304,-0.57474 0.587177,-1.17868 0.694426,-1.63643 0.161408,-0.68889 0.147618,-1.36118 -0.281438,-1.8642 -0.429054,-0.50299 -1.093715,-0.62006 -1.755946,-0.58442 z m 0.07954,1.41463 c 0.440372,-0.0237 0.559171,0.0664 0.568999,0.0779 0.0099,0.0123 0.09371,0.1601 -0.01832,0.63839 -0.112064,0.47828 -0.407954,1.19713 -0.908553,2.11594 l -0.440518,0.80622 7.262376,1.71135 -3.826974,6.06314 -8.23823,-1.28577 -0.256971,0.38664 c -1.217123,1.84432 -2.167538,2.73591 -2.627787,2.96713 -0.230129,0.11552 -0.264155,0.0779 -0.25697,0.0808 0.0072,0.004 -0.05266,-0.0226 -0.125427,-0.2038 -0.145587,-0.36231 -0.198708,-1.18603 -0.0551,-2.01406 0.143465,-0.82703 0.467426,-1.67528 0.841256,-2.18188 4.5e-4,-6.1e-4 -4.49e-4,-0.004 0,-0.004 0.990567,-1.28566 1.674912,-2.019 2.119974,-2.4067 5.3e-5,6.6e-4 -0.0033,0.054 -0.0033,0.054 l 1.425556,0.10489 c 0,0 0.0608,-0.26463 0.06729,-0.58443 6.03e-4,-0.0293 -0.0089,-0.071 -0.0093,-0.10197 -0.01085,-0.36562 -0.06528,-1.15467 0.198841,-2.40067 0.318869,-1.50429 0.999841,-2.95417 2.349406,-3.38972 0.826361,-0.26673 1.493004,-0.41088 1.93337,-0.43459 z M 103.89,142.45646 c 0.33047,-0.093 0.53814,-0.0662 0.78924,0.057 0.25111,0.12323 0.54818,0.38258 0.85657,0.81223 0.0537,0.0747 0.0694,0.12261 0.0337,0.29673 -0.0357,0.17403 -0.15569,0.44337 -0.36404,0.74625 -0.41675,0.60581 -1.15712,1.33472 -1.95171,2.00507 -1.34727,1.13662 -2.43838,1.81699 -2.8603,2.08898 -0.011,0.008 -0.0318,0.0107 -0.0427,0.018 -0.26547,0.18122 -0.411856,0.30724 -0.471106,0.35665 -0.011,0.009 -0.0857,0.0629 -0.0857,0.0629 l 0.862676,1.1299 c 0,0 0.0807,-0.0586 0.0825,-0.0599 3.7e-4,-2.3e-4 0.0141,-0.0123 0.0156,-0.0123 0.003,-8.8e-4 0.0868,-0.0627 0.0918,-0.0659 -0.1729,0.45816 -0.3038,0.86376 -0.847386,1.84022 -0.001,0.004 -0.001,0.004 -0.003,0.006 -0.29608,0.50003 -1.08512,1.32511 -1.99762,2.06201 -0.917286,0.74076 -1.972643,1.42119 -2.750154,1.76529 -0.293853,0.13 -0.467327,0.15978 -0.624066,0.18881 0.01251,-0.10474 -0.0066,-0.17777 0.140652,-0.52749 0.210509,-0.5008 0.603112,-1.21218 1.214483,-2.13392 l 0.581238,-0.87516 -8.036342,-1.57048 4.142058,-5.98521 7.816087,0.9351 0.25389,-0.3207 c 1.39422,-1.78098 2.49301,-2.63431 3.15397,-2.82028 z"
       id="path14589" />
    <path
       style="color:#000000;fill:#ffffff;stroke-width:1.20477;-inkscape-stroke:none"
       d="m 111.09676,64.932798 c 1.46434,-3.141641 2.3106,0.03216 2.3106,0.03216 0,0 -2.9755,-6.454477 -0.26189,-5.492886 2.71361,0.961544 4.03683,2.383379 3.80845,5.115992 l 7.62359,6.377111 -1.02945,4.857579 -8.29026,-6.48859 c -1.26815,4.899462 -4.78129,-2.867053 -4.16107,-4.40145 z m 25.87078,20.599993 c 0.40133,-3.988111 -1.52772,-3.024116 -1.52772,-3.024116 0,0 4.74479,-0.307141 2.55056,-3.253456 -2.19426,-2.946393 -3.67694,-3.758763 -4.71077,-1.667543 l -7.75644,-5.86947 -1.4294,4.539119 8.24145,6.675061 c -1.29118,4.881114 4.37412,4.42306 4.63232,2.600405 z"
       id="path14607" />
    <path
       style="color:#000000;fill:#ffffff;stroke-width:1.55031;-inkscape-stroke:none"
       d="m 112.11293,58.894287 c -0.38657,0.183078 -0.59237,0.563979 -0.66689,0.905125 -0.14911,0.682292 0.011,1.429053 0.22331,2.21186 0.13799,0.509224 0.21443,0.574901 0.38546,1.039995 -0.0871,0.02181 -0.17777,-0.01016 -0.25699,0.02997 -0.20964,0.106018 -0.34244,0.460475 -0.51087,0.653368 l -0.17742,-0.45556 -0.56594,1.405642 -0.0126,0.02998 c -0.14614,0.361424 -0.13658,0.715668 -0.0918,1.114921 0.0448,0.399256 0.14566,0.838304 0.28449,1.297747 0.27752,0.91888 0.71013,1.914276 1.22671,2.733358 0.5166,0.819077 1.06143,1.546815 1.95785,1.660393 0.4482,0.05676 0.93724,-0.159954 1.24813,-0.524497 0.14739,-0.172852 0.21888,-0.485199 0.32732,-0.719302 l 7.90785,6.186018 0.0214,0.01799 8.36365,6.773447 c -0.18503,1.058102 -0.21118,2.026132 0.17132,2.691395 0.44936,0.781578 1.21871,1.223255 1.99456,1.384663 0.77581,0.161404 1.57519,0.07528 2.24539,-0.197809 0.67019,-0.273076 1.27699,-0.773151 1.38272,-1.519528 v -0.0091 l 0.004,-0.01204 c 0.10479,-1.041103 0.0659,-1.791759 -0.0856,-2.364713 -0.067,-0.253664 -0.24406,-0.347345 -0.36097,-0.536477 0.30938,-0.0839 0.36747,-0.01727 0.68217,-0.170835 0.53773,-0.262447 1.08575,-0.675355 1.29095,-1.3427 0.20522,-0.667353 -0.004,-1.451585 -0.61794,-2.274802 -1.1199,-1.503773 -2.0363,-2.515077 -3.053,-2.922179 -0.50837,-0.20355 -1.09666,-0.211943 -1.57853,0.04796 -0.27802,0.149965 -0.44256,0.48248 -0.64546,0.74928 l -7.96291,-6.024174 0.004,-0.01204 -7.79162,-6.521688 c 0.0216,-1.249161 -0.1626,-2.381544 -0.81983,-3.218887 -0.74237,-0.945772 -1.86519,-1.586781 -3.28246,-2.088979 -0.42487,-0.150548 -0.85238,-0.201059 -1.23894,-0.01799 z m 0.52923,1.07596 c -0.0299,0.01417 0.0432,-0.02691 0.29673,0.06295 1.29633,0.459344 2.19125,1.007677 2.73179,1.696358 0.54057,0.688684 0.78177,1.546709 0.67608,2.811282 l -0.0244,0.302706 7.58664,6.344867 -0.75561,3.563554 -8.25354,-6.461754 -0.23248,0.89613 c -0.14566,0.562457 -0.32204,0.903473 -0.44358,1.04599 -0.12155,0.142525 -0.10933,0.111212 -0.15908,0.104895 -0.0997,-0.01264 -0.63412,-0.404013 -1.07681,-1.105932 -0.44269,-0.701914 -0.85184,-1.626857 -1.09822,-2.442636 -0.12311,-0.407888 -0.205,-0.790913 -0.23863,-1.090943 -0.0331,-0.295088 0.004,-0.508173 0.0126,-0.536482 0.32666,-0.688294 0.61231,-0.960765 0.67606,-0.998034 0.011,0.0071 0.004,-0.0011 0.0244,0.02098 0.0894,0.09088 0.21493,0.319335 0.30286,0.521494 0.0272,0.0607 0.14739,0.398619 0.15302,0.410604 8.8e-4,0.0027 0.0337,0.09291 0.0337,0.09291 l 1.1441,-0.395618 c 0,0 -0.0634,-0.234128 -0.18047,-0.518499 -0.006,-0.01641 -0.0266,-0.03712 -0.0337,-0.05396 -0.1724,-0.388731 -0.61225,-1.340413 -0.9361,-2.535549 -0.19254,-0.710612 -0.26732,-1.399923 -0.21107,-1.657396 0.0281,-0.128736 0.0361,-0.09208 0.006,-0.07792 z m 13.2032,12.746668 7.65392,5.7904 0.32734,-0.659361 c 0.22684,-0.458854 0.45329,-0.689392 0.60877,-0.773252 0.15553,-0.08386 0.26952,-0.09744 0.53535,0.0091 0.53164,0.212878 1.45249,1.080942 2.52684,2.523556 0.48403,0.649943 0.50477,1.006926 0.43744,1.225815 -0.0673,0.218889 -0.29575,0.437773 -0.66994,0.620402 -0.74839,0.365264 -1.86607,0.461552 -1.86607,0.461552 l 0.0182,0.06893 c -0.0393,0.01707 -0.25391,-0.0059 -0.25391,-0.0059 l 0.31511,1.126906 c 0,0 0.23318,-0.06382 0.26307,-0.06594 0.0272,-0.0094 0.18931,-0.06702 0.29673,-0.0033 0.0582,0.03466 0.17191,0.123574 0.26921,0.491524 0.0964,0.363987 0.14676,0.991394 0.0552,1.927133 -0.0249,0.164895 -0.22018,0.403404 -0.64241,0.575441 -0.42432,0.172899 -1.01208,0.238265 -1.52344,0.131882 -0.51137,-0.106389 -0.93221,-0.351837 -1.19001,-0.800226 -0.25779,-0.448389 -0.37884,-1.160827 -0.0825,-2.280795 l 0.0978,-0.365639 -8.22602,-6.662561 z"
       id="path14610" />
  </g>
</svg>
